<mxfile host="65bd71144e">
    <diagram id="kY4Am3kJxgSk6fUf5qmP" name="Page-1">
        <mxGraphModel dx="1728" dy="527" grid="1" gridSize="10" guides="1" tooltips="1" connect="1" arrows="1" fold="1" page="1" pageScale="1" pageWidth="850" pageHeight="1100" math="0" shadow="0">
            <root>
                <mxCell id="0"/>
                <mxCell id="1" parent="0"/>
                <mxCell id="2" value="Klient lub recepcjonista" style="shape=umlLifeline;participant=umlActor;perimeter=lifelinePerimeter;whiteSpace=wrap;html=1;container=1;collapsible=0;recursiveResize=0;verticalAlign=top;spacingTop=36;outlineConnect=0;" vertex="1" parent="1">
                    <mxGeometry x="70" y="40" width="20" height="760" as="geometry"/>
                </mxCell>
                <mxCell id="3" value="" style="html=1;points=[];perimeter=orthogonalPerimeter;" vertex="1" parent="2">
                    <mxGeometry x="5" y="80" width="10" height="660" as="geometry"/>
                </mxCell>
                <mxCell id="4" value="System online" style="shape=umlLifeline;perimeter=lifelinePerimeter;whiteSpace=wrap;html=1;container=1;collapsible=0;recursiveResize=0;outlineConnect=0;" vertex="1" parent="1">
                    <mxGeometry x="310" y="40" width="100" height="760" as="geometry"/>
                </mxCell>
                <mxCell id="5" value="" style="html=1;points=[];perimeter=orthogonalPerimeter;" vertex="1" parent="4">
                    <mxGeometry x="45" y="80" width="10" height="60" as="geometry"/>
                </mxCell>
                <mxCell id="6" value="" style="html=1;points=[];perimeter=orthogonalPerimeter;" vertex="1" parent="4">
                    <mxGeometry x="45" y="160" width="10" height="60" as="geometry"/>
                </mxCell>
                <mxCell id="7" style="edgeStyle=none;html=1;startArrow=open;startFill=0;endArrow=open;endFill=0;" edge="1" parent="4" source="8" target="4">
                    <mxGeometry relative="1" as="geometry"/>
                </mxCell>
                <mxCell id="8" value="" style="html=1;points=[];perimeter=orthogonalPerimeter;" vertex="1" parent="4">
                    <mxGeometry x="45" y="240" width="10" height="480" as="geometry"/>
                </mxCell>
                <mxCell id="9" value="Baza danych lecznicy" style="shape=umlLifeline;perimeter=lifelinePerimeter;whiteSpace=wrap;html=1;container=1;collapsible=0;recursiveResize=0;outlineConnect=0;" vertex="1" parent="1">
                    <mxGeometry x="590" y="40" width="100" height="760" as="geometry"/>
                </mxCell>
                <mxCell id="10" style="edgeStyle=none;html=1;startArrow=open;startFill=0;endArrow=open;endFill=0;" edge="1" parent="9" source="11" target="9">
                    <mxGeometry relative="1" as="geometry"/>
                </mxCell>
                <mxCell id="11" value="" style="html=1;points=[];perimeter=orthogonalPerimeter;" vertex="1" parent="9">
                    <mxGeometry x="45" y="260" width="10" height="310" as="geometry"/>
                </mxCell>
                <mxCell id="12" value="&amp;nbsp;Zaloguj" style="endArrow=classic;html=1;entryX=-0.169;entryY=0.156;entryDx=0;entryDy=0;entryPerimeter=0;" edge="1" parent="1" target="5">
                    <mxGeometry width="50" height="50" relative="1" as="geometry">
                        <mxPoint x="80" y="129" as="sourcePoint"/>
                        <mxPoint x="130" y="120" as="targetPoint"/>
                    </mxGeometry>
                </mxCell>
                <mxCell id="13" value="Wyświetl panel" style="endArrow=none;dashed=1;html=1;startArrow=open;startFill=0;entryX=-0.059;entryY=0.818;entryDx=0;entryDy=0;entryPerimeter=0;" edge="1" parent="1" source="3" target="5">
                    <mxGeometry width="50" height="50" relative="1" as="geometry">
                        <mxPoint x="240" y="230" as="sourcePoint"/>
                        <mxPoint x="290" y="180" as="targetPoint"/>
                    </mxGeometry>
                </mxCell>
                <mxCell id="14" value="Zainicjuj akcję umawania wizyty&amp;nbsp;" style="endArrow=classic;html=1;entryX=-0.224;entryY=0.12;entryDx=0;entryDy=0;entryPerimeter=0;" edge="1" parent="1" source="3" target="6">
                    <mxGeometry width="50" height="50" relative="1" as="geometry">
                        <mxPoint x="80" y="220" as="sourcePoint"/>
                        <mxPoint x="348.31000000000006" y="220" as="targetPoint"/>
                    </mxGeometry>
                </mxCell>
                <mxCell id="15" value="Wyświetl formatkę" style="endArrow=none;dashed=1;html=1;startArrow=open;startFill=0;entryX=0.052;entryY=0.828;entryDx=0;entryDy=0;entryPerimeter=0;" edge="1" parent="1" source="3" target="6">
                    <mxGeometry width="50" height="50" relative="1" as="geometry">
                        <mxPoint x="94.07000000000005" y="178.60000000000002" as="sourcePoint"/>
                        <mxPoint x="364.4100000000001" y="179.08000000000004" as="targetPoint"/>
                    </mxGeometry>
                </mxCell>
                <mxCell id="16" value="Wybierz termin wizyty" style="endArrow=classic;html=1;entryX=-0.027;entryY=0.041;entryDx=0;entryDy=0;entryPerimeter=0;" edge="1" parent="1" source="3" target="8">
                    <mxGeometry width="50" height="50" relative="1" as="geometry">
                        <mxPoint x="120" y="360" as="sourcePoint"/>
                        <mxPoint x="300" y="290" as="targetPoint"/>
                    </mxGeometry>
                </mxCell>
                <mxCell id="17" value="Sprawdź dostępność terminu" style="endArrow=classic;html=1;exitX=1.173;exitY=0.084;exitDx=0;exitDy=0;exitPerimeter=0;" edge="1" parent="1" source="8">
                    <mxGeometry width="50" height="50" relative="1" as="geometry">
                        <mxPoint x="360" y="314" as="sourcePoint"/>
                        <mxPoint x="630" y="320" as="targetPoint"/>
                    </mxGeometry>
                </mxCell>
                <mxCell id="18" value="Zwróć informację o dostępności terminu" style="endArrow=none;dashed=1;html=1;startArrow=open;startFill=0;exitX=1.21;exitY=0.143;exitDx=0;exitDy=0;exitPerimeter=0;" edge="1" parent="1" source="8" target="11">
                    <mxGeometry width="50" height="50" relative="1" as="geometry">
                        <mxPoint x="360" y="380" as="sourcePoint"/>
                        <mxPoint x="630.5200000000002" y="379.99999999999994" as="targetPoint"/>
                    </mxGeometry>
                </mxCell>
                <mxCell id="19" value="Wyświetl informację o wolnym terminie" style="endArrow=none;dashed=1;html=1;startArrow=open;startFill=0;entryX=-0.059;entryY=0.185;entryDx=0;entryDy=0;entryPerimeter=0;" edge="1" parent="1" source="3" target="8">
                    <mxGeometry width="50" height="50" relative="1" as="geometry">
                        <mxPoint x="90" y="390" as="sourcePoint"/>
                        <mxPoint x="290" y="400" as="targetPoint"/>
                    </mxGeometry>
                </mxCell>
                <mxCell id="20" value="Potwierdź termin" style="endArrow=classic;html=1;entryX=-0.224;entryY=0.271;entryDx=0;entryDy=0;entryPerimeter=0;" edge="1" parent="1" source="3" target="8">
                    <mxGeometry width="50" height="50" relative="1" as="geometry">
                        <mxPoint x="100" y="480" as="sourcePoint"/>
                        <mxPoint x="350" y="420" as="targetPoint"/>
                    </mxGeometry>
                </mxCell>
                <mxCell id="21" value="Zapisz termin" style="endArrow=open;html=1;exitX=1.1;exitY=0.309;exitDx=0;exitDy=0;exitPerimeter=0;endFill=0;" edge="1" parent="1" source="8" target="9">
                    <mxGeometry width="50" height="50" relative="1" as="geometry">
                        <mxPoint x="370" y="429.9999999999999" as="sourcePoint"/>
                        <mxPoint x="630" y="428" as="targetPoint"/>
                    </mxGeometry>
                </mxCell>
                <mxCell id="22" value="Wyślij przypomnienie o wizycie" style="endArrow=none;dashed=1;html=1;startArrow=open;startFill=0;entryX=-0.181;entryY=0.353;entryDx=0;entryDy=0;entryPerimeter=0;" edge="1" parent="1" source="2" target="8">
                    <mxGeometry width="50" height="50" relative="1" as="geometry">
                        <mxPoint x="90" y="415" as="sourcePoint"/>
                        <mxPoint x="280" y="440" as="targetPoint"/>
                    </mxGeometry>
                </mxCell>
                <mxCell id="23" value="Wyświetl informację o braku dostępnośći terminu" style="endArrow=none;dashed=1;html=1;startArrow=open;startFill=0;entryX=-0.26;entryY=0.437;entryDx=0;entryDy=0;entryPerimeter=0;exitX=1.26;exitY=0.56;exitDx=0;exitDy=0;exitPerimeter=0;" edge="1" parent="1" source="3" target="8">
                    <mxGeometry width="50" height="50" relative="1" as="geometry">
                        <mxPoint x="90" y="450" as="sourcePoint"/>
                        <mxPoint x="348.27" y="450" as="targetPoint"/>
                    </mxGeometry>
                </mxCell>
                <mxCell id="24" value="Zaproponuj inny termin" style="endArrow=none;dashed=1;html=1;startArrow=open;startFill=0;entryX=-0.167;entryY=0.517;entryDx=0;entryDy=0;entryPerimeter=0;exitX=1.167;exitY=0.621;exitDx=0;exitDy=0;exitPerimeter=0;" edge="1" parent="1" source="3" target="8">
                    <mxGeometry width="50" height="50" relative="1" as="geometry">
                        <mxPoint x="90" y="591" as="sourcePoint"/>
                        <mxPoint x="366.9100000000001" y="461.29999999999984" as="targetPoint"/>
                    </mxGeometry>
                </mxCell>
                <mxCell id="25" value="Potwierdź termin" style="endArrow=classic;html=1;exitX=0.967;exitY=0.678;exitDx=0;exitDy=0;exitPerimeter=0;" edge="1" parent="1" source="3" target="4">
                    <mxGeometry width="50" height="50" relative="1" as="geometry">
                        <mxPoint x="95" y="382.1" as="sourcePoint"/>
                        <mxPoint x="363.27" y="382.1" as="targetPoint"/>
                    </mxGeometry>
                </mxCell>
                <mxCell id="26" value="Zrezygnuj z wizyty" style="endArrow=classic;html=1;exitX=1.156;exitY=0.803;exitDx=0;exitDy=0;exitPerimeter=0;" edge="1" parent="1" source="3" target="4">
                    <mxGeometry width="50" height="50" relative="1" as="geometry">
                        <mxPoint x="110" y="650" as="sourcePoint"/>
                        <mxPoint x="350" y="547" as="targetPoint"/>
                    </mxGeometry>
                </mxCell>
                <mxCell id="27" value="Wyślij przypomnienie o wizycie" style="endArrow=none;dashed=1;html=1;startArrow=open;startFill=0;entryX=-0.1;entryY=0.685;entryDx=0;entryDy=0;entryPerimeter=0;exitX=1.167;exitY=0.74;exitDx=0;exitDy=0;exitPerimeter=0;" edge="1" parent="1" source="3" target="8">
                    <mxGeometry width="50" height="50" relative="1" as="geometry">
                        <mxPoint x="89.66666666666674" y="459.43999999999994" as="sourcePoint"/>
                        <mxPoint x="363.18999999999994" y="459.43999999999994" as="targetPoint"/>
                    </mxGeometry>
                </mxCell>
                <mxCell id="28" value="Zapisz termin" style="endArrow=open;html=1;exitX=1.1;exitY=0.644;exitDx=0;exitDy=0;exitPerimeter=0;endFill=0;" edge="1" parent="1" source="8" target="9">
                    <mxGeometry width="50" height="50" relative="1" as="geometry">
                        <mxPoint x="376" y="438.32000000000005" as="sourcePoint"/>
                        <mxPoint x="649.5" y="438.32000000000005" as="targetPoint"/>
                    </mxGeometry>
                </mxCell>
                <mxCell id="29" value="alt" style="shape=umlFrame;whiteSpace=wrap;html=1;" vertex="1" parent="1">
                    <mxGeometry x="-70" y="360" width="750" height="270" as="geometry"/>
                </mxCell>
                <mxCell id="30" value="" style="endArrow=none;html=1;exitX=0.002;exitY=0.4;exitDx=0;exitDy=0;exitPerimeter=0;dashed=1;" edge="1" parent="1" source="29">
                    <mxGeometry width="50" height="50" relative="1" as="geometry">
                        <mxPoint x="290" y="510" as="sourcePoint"/>
                        <mxPoint x="680" y="468" as="targetPoint"/>
                    </mxGeometry>
                </mxCell>
                <mxCell id="31" value="Wolny termin" style="text;html=1;strokeColor=none;fillColor=none;align=center;verticalAlign=middle;whiteSpace=wrap;rounded=0;" vertex="1" parent="1">
                    <mxGeometry x="-70" y="390" width="90" height="30" as="geometry"/>
                </mxCell>
                <mxCell id="32" value="Termin zajęty" style="text;html=1;strokeColor=none;fillColor=none;align=center;verticalAlign=middle;whiteSpace=wrap;rounded=0;" vertex="1" parent="1">
                    <mxGeometry x="-70" y="470" width="90" height="30" as="geometry"/>
                </mxCell>
                <mxCell id="33" value="alt" style="shape=umlFrame;whiteSpace=wrap;html=1;" vertex="1" parent="1">
                    <mxGeometry x="-50" y="550" width="720" height="130" as="geometry"/>
                </mxCell>
                <mxCell id="34" value="Alt termin zaakceptoway" style="text;html=1;strokeColor=none;fillColor=none;align=center;verticalAlign=middle;whiteSpace=wrap;rounded=0;" vertex="1" parent="1">
                    <mxGeometry x="-50" y="590" width="90" height="30" as="geometry"/>
                </mxCell>
                <mxCell id="35" value="Alt termin odrzucony" style="text;html=1;strokeColor=none;fillColor=none;align=center;verticalAlign=middle;whiteSpace=wrap;rounded=0;" vertex="1" parent="1">
                    <mxGeometry x="-50" y="640" width="90" height="30" as="geometry"/>
                </mxCell>
                <mxCell id="36" value="" style="endArrow=none;dashed=1;html=1;exitX=0.001;exitY=0.563;exitDx=0;exitDy=0;exitPerimeter=0;entryX=0.999;entryY=0.551;entryDx=0;entryDy=0;entryPerimeter=0;" edge="1" parent="1" source="33" target="33">
                    <mxGeometry width="50" height="50" relative="1" as="geometry">
                        <mxPoint x="240" y="640" as="sourcePoint"/>
                        <mxPoint x="290" y="590" as="targetPoint"/>
                    </mxGeometry>
                </mxCell>
            </root>
        </mxGraphModel>
    </diagram>
</mxfile>